<svg width="14" height="13" viewBox="0 0 14 13" fill="none" xmlns="http://www.w3.org/2000/svg">
<path d="M13.2219 4.6314L9.25474 4.05484L7.4813 0.459527C7.43287 0.36109 7.35318 0.281402 7.25474 0.232965C7.00787 0.11109 6.70787 0.212652 6.58443 0.459527L4.81099 4.05484L0.843804 4.6314C0.734429 4.64703 0.634429 4.69859 0.557866 4.77671C0.465306 4.87185 0.414302 4.99984 0.41606 5.13256C0.417818 5.26528 0.472194 5.39188 0.567241 5.48453L3.43755 8.28296L2.75943 12.2345C2.74353 12.3264 2.7537 12.421 2.78879 12.5074C2.82388 12.5939 2.88249 12.6687 2.95797 12.7236C3.03345 12.7784 3.12278 12.8109 3.21583 12.8176C3.30889 12.8242 3.40193 12.8046 3.48443 12.7611L7.03287 10.8955L10.5813 12.7611C10.6782 12.8127 10.7907 12.8298 10.8985 12.8111C11.1704 12.7642 11.3532 12.5064 11.3063 12.2345L10.6282 8.28296L13.4985 5.48453C13.5766 5.40797 13.6282 5.30796 13.6438 5.19859C13.686 4.92515 13.4954 4.67203 13.2219 4.6314Z" fill="#FF8906"/>
</svg>
